{
  "asset": {
    "version": "2.0",
    "generator": "THREE.GLTFExporter"
  },
  "scenes": [
    {
      "nodes": [
        0
      ]
    }
  ],
  "scene": 0,
  "nodes": [
    {
      "children": [
        6,
        7,
        8
      ],
      "matrix": [
        0.01,
        0,
        0,
        0,
        0,
        0.01,
        0,
        0,
        0,
        0,
        0.01,
        0,
        0,
        0,
        0,
        1
      ]
    },
    {
      "matrix": [
        1,
        0,
        0,
        0,
        0,
        1,
        0,
        0,
        0,
        0,
        1,
        0,
        -0.3241445245875241,
        -6.216325549020212,
        18.45366254981883,
        1
      ],
      "name": "Cube 4",
      "mesh": 0
    },
    {
      "matrix": [
        1,
        0,
        0,
        0,
        0,
        1,
        0,
        0,
        0,
        0,
        1,
        0,
        -0.3241445245875241,
        -10.840788158082773,
        18.45366254981883,
        1
      ],
      "name": "Cube 3",
      "mesh": 1
    },
    {
      "matrix": [
        1,
        0,
        0,
        0,
        0,
        1,
        0,
        0,
        0,
        0,
        1,
        0,
        -24.128335791899218,
        53.555678489075376,
        -7.342821932720767,
        1
      ],
      "name": "Shape",
      "mesh": 2
    },
    {
      "matrix": [
        0.9999999999999999,
        0,
        0,
        0,
        0,
        1.4648220855488618,
        0,
        0,
        0,
        0,
        0.9999999999999999,
        0,
        0.15009689331054682,
        20.69823197852372,
        -15.453662549818814,
        0.9999999999999999
      ],
      "name": "Cube 2",
      "mesh": 3
    },
    {
      "matrix": [
        0.9999999999999999,
        0,
        0,
        0,
        0,
        1.4648220855488618,
        0,
        0,
        0,
        0,
        0.9999999999999999,
        0,
        0.15009689331054682,
        -15.593618058996977,
        -4.6241354135699435,
        0.9999999999999999
      ],
      "name": "Cube",
      "mesh": 4
    },
    {
      "name": "briefcase",
      "children": [
        1,
        2,
        3,
        4,
        5
      ]
    },
    {
      "matrix": [
        0.79769813200621,
        -1.9077810470280454e-8,
        0.6030569543532375,
        0,
        0.2561597803647616,
        0.9053018744020707,
        -0.3388372516822412,
        0,
        -0.545948584682917,
        0.4247687796956092,
        0.72215761899922,
        0,
        -545.9485846829178,
        424.76877969560957,
        722.15761899922,
        1
      ],
      "camera": 0
    },
    {
      "matrix": [
        1,
        0,
        0,
        0,
        0,
        1,
        0,
        0,
        0,
        0,
        1,
        0,
        0,
        1,
        0,
        1
      ],
      "name": "Default Ambient Light"
    }
  ],
  "bufferViews": [
    {
      "buffer": 0,
      "byteOffset": 0,
      "byteLength": 18432,
      "target": 34962,
      "byteStride": 12
    },
    {
      "buffer": 0,
      "byteOffset": 18432,
      "byteLength": 18432,
      "target": 34962,
      "byteStride": 12
    },
    {
      "buffer": 0,
      "byteOffset": 36864,
      "byteLength": 9216,
      "target": 34963
    },
    {
      "buffer": 0,
      "byteOffset": 46080,
      "byteLength": 7200,
      "target": 34962,
      "byteStride": 12
    },
    {
      "buffer": 0,
      "byteOffset": 53280,
      "byteLength": 7200,
      "target": 34962,
      "byteStride": 12
    },
    {
      "buffer": 0,
      "byteOffset": 60480,
      "byteLength": 4800,
      "target": 34962,
      "byteStride": 8
    },
    {
      "buffer": 0,
      "byteOffset": 65280,
      "byteLength": 4296,
      "target": 34963
    },
    {
      "buffer": 0,
      "byteOffset": 69576,
      "byteLength": 39216,
      "target": 34962,
      "byteStride": 12
    },
    {
      "buffer": 0,
      "byteOffset": 108792,
      "byteLength": 39216,
      "target": 34962,
      "byteStride": 12
    },
    {
      "buffer": 0,
      "byteOffset": 148008,
      "byteLength": 26144,
      "target": 34962,
      "byteStride": 8
    },
    {
      "buffer": 0,
      "byteOffset": 174152,
      "byteLength": 62736,
      "target": 34963
    },
    {
      "buffer": 0,
      "byteOffset": 236888,
      "byteLength": 62976,
      "target": 34962,
      "byteStride": 12
    },
    {
      "buffer": 0,
      "byteOffset": 299864,
      "byteLength": 62976,
      "target": 34962,
      "byteStride": 12
    },
    {
      "buffer": 0,
      "byteOffset": 362840,
      "byteLength": 31488,
      "target": 34963
    },
    {
      "buffer": 0,
      "byteOffset": 394328,
      "byteLength": 7200,
      "target": 34962,
      "byteStride": 12
    },
    {
      "buffer": 0,
      "byteOffset": 401528,
      "byteLength": 7200,
      "target": 34962,
      "byteStride": 12
    },
    {
      "buffer": 0,
      "byteOffset": 408728,
      "byteLength": 4800,
      "target": 34962,
      "byteStride": 8
    },
    {
      "buffer": 0,
      "byteOffset": 413528,
      "byteLength": 4296,
      "target": 34963
    }
  ],
  "buffers": [
    {
      "byteLength": 417824,
      "uri": "data:application/octet-stream;base64,"
    }
  ],
  "accessors": [
    {
      "bufferView": 0,
      "componentType": 5126,
      "count": 1536,
      "max": [
        8,
        14.828600883483887,
        2
      ],
      "min": [
        -8,
        -17.394670486450195,
        -2
      ],
      "type": "VEC3"
    },
    {
      "bufferView": 1,
      "componentType": 5126,
      "count": 1536,
      "max": [
        1,
        1,
        1
      ],
      "min": [
        -1,
        -1,
        -1
      ],
      "type": "VEC3"
    },
    {
      "bufferView": 2,
      "componentType": 5125,
      "count": 2304,
      "max": [
        1535
      ],
      "min": [
        0
      ],
      "type": "SCALAR"
    },
    {
      "bufferView": 3,
      "componentType": 5126,
      "count": 600,
      "max": [
        12,
        8,
        3
      ],
      "min": [
        -12,
        -8,
        -3
      ],
      "type": "VEC3"
    },
    {
      "bufferView": 4,
      "componentType": 5126,
      "count": 600,
      "max": [
        1,
        1,
        1
      ],
      "min": [
        -1,
        -1,
        -1
      ],
      "type": "VEC3"
    },
    {
      "bufferView": 5,
      "componentType": 5126,
      "count": 600,
      "max": [
        1,
        1
      ],
      "min": [
        0,
        0
      ],
      "type": "VEC2"
    },
    {
      "bufferView": 6,
      "componentType": 5123,
      "count": 2148,
      "max": [
        599
      ],
      "min": [
        0
      ],
      "type": "SCALAR"
    },
    {
      "bufferView": 7,
      "componentType": 5126,
      "count": 3268,
      "max": [
        48.14398193359375,
        16.236356735229492,
        9
      ],
      "min": [
        -0.00040985687519423664,
        -1.9999704360961914,
        0
      ],
      "type": "VEC3"
    },
    {
      "bufferView": 8,
      "componentType": 5126,
      "count": 3268,
      "max": [
        1,
        1,
        1
      ],
      "min": [
        -1,
        -1,
        -1
      ],
      "type": "VEC3"
    },
    {
      "bufferView": 9,
      "componentType": 5126,
      "count": 3268,
      "max": [
        1,
        1
      ],
      "min": [
        0,
        0
      ],
      "type": "VEC2"
    },
    {
      "bufferView": 10,
      "componentType": 5125,
      "count": 15684,
      "max": [
        3267
      ],
      "min": [
        0
      ],
      "type": "SCALAR"
    },
    {
      "bufferView": 11,
      "componentType": 5126,
      "count": 5248,
      "max": [
        80,
        23.72342300415039,
        31.924938201904297
      ],
      "min": [
        -80,
        -26.591224670410156,
        -6
      ],
      "type": "VEC3"
    },
    {
      "bufferView": 12,
      "componentType": 5126,
      "count": 5248,
      "max": [
        1,
        0.9997357130050659,
        1
      ],
      "min": [
        -1,
        -1,
        -1
      ],
      "type": "VEC3"
    },
    {
      "bufferView": 13,
      "componentType": 5125,
      "count": 7872,
      "max": [
        5247
      ],
      "min": [
        0
      ],
      "type": "SCALAR"
    },
    {
      "bufferView": 14,
      "componentType": 5126,
      "count": 600,
      "max": [
        76,
        37,
        12
      ],
      "min": [
        -76,
        -37,
        -12
      ],
      "type": "VEC3"
    },
    {
      "bufferView": 15,
      "componentType": 5126,
      "count": 600,
      "max": [
        1,
        1,
        1
      ],
      "min": [
        -1,
        -1,
        -1
      ],
      "type": "VEC3"
    },
    {
      "bufferView": 16,
      "componentType": 5126,
      "count": 600,
      "max": [
        1,
        1
      ],
      "min": [
        0,
        0
      ],
      "type": "VEC2"
    },
    {
      "bufferView": 17,
      "componentType": 5123,
      "count": 2148,
      "max": [
        599
      ],
      "min": [
        0
      ],
      "type": "SCALAR"
    }
  ],
  "meshes": [
    {
      "primitives": [
        {
          "mode": 4,
          "attributes": {
            "POSITION": 0,
            "NORMAL": 1
          },
          "extras": {
            "type": "SubdivGeometry",
            "parameters": {
              "width": 16,
              "height": 33.05445194244385,
              "depth": 4
            }
          },
          "indices": 2
        }
      ]
    },
    {
      "primitives": [
        {
          "mode": 4,
          "attributes": {
            "POSITION": 3,
            "NORMAL": 4,
            "TEXCOORD_0": 5
          },
          "extras": {
            "parameters": {
              "width": 24,
              "widthSegments": 1,
              "heightSegments": 1,
              "depthSegments": 1,
              "cornerRadius": 2,
              "cornerSegments": 8,
              "height": 16,
              "depth": 6,
              "type": "CubeGeometry"
            },
            "type": "CubeGeometry"
          },
          "indices": 6
        }
      ]
    },
    {
      "primitives": [
        {
          "mode": 4,
          "attributes": {
            "POSITION": 7,
            "NORMAL": 8,
            "TEXCOORD_0": 9
          },
          "extras": {
            "parameters": {
              "width": 100,
              "subdivisions": 40,
              "roundness": 12,
              "extrudeBevelSize": 2,
              "extrudeBevelSegments": 3,
              "windingRule": 0,
              "extrudeDepth": 0,
              "surfaceMaxCount": 100,
              "height": 100,
              "depth": 9,
              "shape": {
                "points": [
                  {
                    "fi": 0.46152771661801884,
                    "id": "D61C79B7-C729-4DD8-B718-2F54C36B916E",
                    "data": {
                      "position": [
                        -0.0005020006115898923,
                        -1.9999704365444586
                      ],
                      "controlPrevious": {
                        "position": [
                          -0.0005020006115898923,
                          -1.9999704365444586
                        ]
                      },
                      "controlNext": {
                        "position": [
                          -0.0005020006115898923,
                          -1.9999704365444586
                        ]
                      },
                      "areControlsDirectionsMirrored": true,
                      "roundness": 12
                    }
                  },
                  {
                    "fi": 0.9325972582080209,
                    "id": "593BAC4C-5FE8-4760-A41E-BF3EC8F355BA",
                    "data": {
                      "position": [
                        0,
                        16.23635746009337
                      ],
                      "controlPrevious": {
                        "position": [
                          0,
                          16.23635746009337
                        ]
                      },
                      "controlNext": {
                        "position": [
                          0,
                          16.23635746009337
                        ]
                      },
                      "areControlsDirectionsMirrored": true,
                      "roundness": 12
                    }
                  },
                  {
                    "fi": 1.515084989690303,
                    "id": "306E5546-A1A0-427B-B384-CE24AA7EAA0A",
                    "data": {
                      "position": [
                        48.14423188743106,
                        16.23635746009337
                      ],
                      "controlPrevious": {
                        "position": [
                          48.14423188743106,
                          16.23635746009337
                        ]
                      },
                      "controlNext": {
                        "position": [
                          48.14423188743106,
                          16.23635746009337
                        ]
                      },
                      "areControlsDirectionsMirrored": true,
                      "roundness": 12
                    }
                  },
                  {
                    "fi": 2.0181954161122775,
                    "id": "F6364369-0306-4944-A9EB-7AB8A01AD1AC",
                    "data": {
                      "position": [
                        48.14372988681947,
                        -1.9999704365444586
                      ],
                      "controlPrevious": {
                        "position": [
                          48.14372988681947,
                          -1.9999704365444586
                        ]
                      },
                      "controlNext": {
                        "position": [
                          48.14372988681947,
                          -1.9999704365444586
                        ]
                      },
                      "areControlsDirectionsMirrored": true,
                      "roundness": 12
                    }
                  },
                  {
                    "fi": 2.5197436169981073,
                    "id": "A20735F6-12A3-4505-95AB-7B790705B6F8",
                    "data": {
                      "position": [
                        41.37309106295785,
                        -1.9999704365444586
                      ],
                      "controlPrevious": {
                        "position": [
                          41.37309106295785,
                          -1.9999704365444586
                        ]
                      },
                      "controlNext": {
                        "position": [
                          41.37309106295785,
                          -1.9999704365444586
                        ]
                      },
                      "areControlsDirectionsMirrored": true,
                      "roundness": 12
                    }
                  },
                  {
                    "fi": 2.957180753864483,
                    "id": "70681AEE-C1E7-4164-9C1B-AB64E3EB8FF2",
                    "data": {
                      "position": [
                        41.37359306356943,
                        8.98014938786335
                      ],
                      "controlPrevious": {
                        "position": [
                          41.37359306356943,
                          8.98014938786335
                        ]
                      },
                      "controlNext": {
                        "position": [
                          41.37359306356943,
                          8.98014938786335
                        ]
                      },
                      "areControlsDirectionsMirrored": true,
                      "roundness": 12
                    }
                  },
                  {
                    "fi": 3.354783953810596,
                    "id": "8C150B5C-BA99-4ADC-A95C-38B5843C062B",
                    "data": {
                      "position": [
                        6.7080819287307065,
                        8.980149387863353
                      ],
                      "controlPrevious": {
                        "position": [
                          6.7080819287307065,
                          8.980149387863353
                        ]
                      },
                      "controlNext": {
                        "position": [
                          6.7080819287307065,
                          8.980149387863353
                        ]
                      },
                      "areControlsDirectionsMirrored": true,
                      "roundness": 12
                    }
                  },
                  {
                    "fi": 3.7867582599299183,
                    "id": "2749C38C-E097-4515-8DA4-DFDE205E34DB",
                    "data": {
                      "position": [
                        6.707579928119116,
                        -1.9999704365444586
                      ],
                      "controlPrevious": {
                        "position": [
                          6.707579928119116,
                          -1.9999704365444586
                        ]
                      },
                      "controlNext": {
                        "position": [
                          6.707579928119116,
                          -1.9999704365444586
                        ]
                      },
                      "areControlsDirectionsMirrored": true,
                      "roundness": 12
                    }
                  }
                ],
                "isClosed": true,
                "roundness": 12,
                "shapeHoles": []
              },
              "type": "VectorGeometry"
            },
            "shape": {
              "points": [
                -0.0005020006115898923,
                -1.9999704365444586,
                -0.0005020006115898923,
                -1.9999704365444586,
                -0.0005020006115898923,
                -1.9999704365444586,
                12,
                0,
                16.23635746009337,
                0,
                16.23635746009337,
                0,
                16.23635746009337,
                12,
                48.14423188743106,
                16.23635746009337,
                48.14423188743106,
                16.23635746009337,
                48.14423188743106,
                16.23635746009337,
                12,
                48.14372988681947,
                -1.9999704365444586,
                48.14372988681947,
                -1.9999704365444586,
                48.14372988681947,
                -1.9999704365444586,
                12,
                41.37309106295785,
                -1.9999704365444586,
                41.37309106295785,
                -1.9999704365444586,
                41.37309106295785,
                -1.9999704365444586,
                12,
                41.37359306356943,
                8.98014938786335,
                41.37359306356943,
                8.98014938786335,
                41.37359306356943,
                8.98014938786335,
                12,
                6.7080819287307065,
                8.980149387863353,
                6.7080819287307065,
                8.980149387863353,
                6.7080819287307065,
                8.980149387863353,
                12,
                6.707579928119116,
                -1.9999704365444586,
                6.707579928119116,
                -1.9999704365444586,
                6.707579928119116,
                -1.9999704365444586,
                12
              ],
              "shapeHoles": [],
              "isClosed": true,
              "roundness": 12
            },
            "type": "VectorGeometry"
          },
          "indices": 10
        }
      ]
    },
    {
      "primitives": [
        {
          "mode": 4,
          "attributes": {
            "POSITION": 11,
            "NORMAL": 12
          },
          "extras": {
            "type": "SubdivGeometry",
            "parameters": {
              "width": 160.3001937866211,
              "height": 53.41829872131348,
              "depth": 37.9249382019043
            }
          },
          "indices": 13
        }
      ]
    },
    {
      "primitives": [
        {
          "mode": 4,
          "attributes": {
            "POSITION": 14,
            "NORMAL": 15,
            "TEXCOORD_0": 16
          },
          "extras": {
            "parameters": {
              "width": 152,
              "widthSegments": 1,
              "heightSegments": 1,
              "depthSegments": 1,
              "cornerRadius": 5,
              "cornerSegments": 8,
              "height": 74,
              "depth": 24,
              "type": "CubeGeometry"
            },
            "type": "CubeGeometry"
          },
          "indices": 17
        }
      ]
    }
  ],
  "cameras": [
    {
      "type": "orthographic",
      "orthographic": {
        "xmag": 7.2,
        "ymag": 3.9800000000000004,
        "zfar": 100000,
        "znear": 0
      }
    }
  ]
}