{
  "asset": {
    "version": "2.0",
    "generator": "THREE.GLTFExporter"
  },
  "scenes": [
    {
      "nodes": [
        0
      ]
    }
  ],
  "scene": 0,
  "nodes": [
    {
      "children": [
        5,
        6,
        7
      ],
      "matrix": [
        0.01,
        0,
        0,
        0,
        0,
        0.01,
        0,
        0,
        0,
        0,
        0.01,
        0,
        0,
        0,
        0,
        1
      ]
    },
    {
      "matrix": [
        1,
        0,
        0,
        0,
        0,
        -1,
        1.2246467991473532e-16,
        0,
        0,
        -1.2246467991473532e-16,
        -1,
        0,
        -0.9433388673238596,
        -8.884526198542858,
        -21.99925275008718,
        1
      ],
      "name": "Rectangle 3",
      "mesh": 0
    },
    {
      "matrix": [
        1,
        0,
        0,
        0,
        0,
        1,
        0,
        0,
        0,
        0,
        1,
        0,
        48.37305858847077,
        20.39067728756436,
        12.125232677075402,
        1
      ],
      "name": "Rectangle 2",
      "mesh": 1
    },
    {
      "matrix": [
        1,
        0,
        0,
        0,
        0,
        1,
        0,
        0,
        0,
        0,
        1,
        0,
        1.5,
        -9.741531372070312,
        26.545650279687834,
        1
      ],
      "name": "Ellipse",
      "mesh": 2
    },
    {
      "matrix": [
        1,
        0,
        0,
        0,
        0,
        1,
        0,
        0,
        0,
        0,
        1,
        0,
        0,
        -8.741531372070312,
        -7.589389332555584,
        1
      ],
      "name": "Cube",
      "mesh": 3
    },
    {
      "name": "camera",
      "children": [
        1,
        2,
        3,
        4
      ]
    },
    {
      "matrix": [
        0.79769813200621,
        -1.9077810470280454e-8,
        0.6030569543532375,
        0,
        0.2561597803647616,
        0.9053018744020707,
        -0.3388372516822412,
        0,
        -0.545948584682917,
        0.4247687796956092,
        0.72215761899922,
        0,
        -545.9485846829178,
        424.76877969560957,
        722.15761899922,
        1
      ],
      "camera": 0
    },
    {
      "matrix": [
        1,
        0,
        0,
        0,
        0,
        1,
        0,
        0,
        0,
        0,
        1,
        0,
        0,
        1,
        0,
        1
      ],
      "name": "Default Ambient Light"
    }
  ],
  "bufferViews": [
    {
      "buffer": 0,
      "byteOffset": 0,
      "byteLength": 11808,
      "target": 34962,
      "byteStride": 12
    },
    {
      "buffer": 0,
      "byteOffset": 11808,
      "byteLength": 11808,
      "target": 34962,
      "byteStride": 12
    },
    {
      "buffer": 0,
      "byteOffset": 23616,
      "byteLength": 7872,
      "target": 34962,
      "byteStride": 8
    },
    {
      "buffer": 0,
      "byteOffset": 31488,
      "byteLength": 15696,
      "target": 34963
    },
    {
      "buffer": 0,
      "byteOffset": 47184,
      "byteLength": 15744,
      "target": 34962,
      "byteStride": 12
    },
    {
      "buffer": 0,
      "byteOffset": 62928,
      "byteLength": 15744,
      "target": 34962,
      "byteStride": 12
    },
    {
      "buffer": 0,
      "byteOffset": 78672,
      "byteLength": 10496,
      "target": 34962,
      "byteStride": 8
    },
    {
      "buffer": 0,
      "byteOffset": 89168,
      "byteLength": 23568,
      "target": 34963
    },
    {
      "buffer": 0,
      "byteOffset": 112736,
      "byteLength": 3072,
      "target": 34962,
      "byteStride": 12
    },
    {
      "buffer": 0,
      "byteOffset": 115808,
      "byteLength": 3072,
      "target": 34962,
      "byteStride": 12
    },
    {
      "buffer": 0,
      "byteOffset": 118880,
      "byteLength": 2048,
      "target": 34962,
      "byteStride": 8
    },
    {
      "buffer": 0,
      "byteOffset": 120928,
      "byteLength": 3024,
      "target": 34963
    },
    {
      "buffer": 0,
      "byteOffset": 123952,
      "byteLength": 399360,
      "target": 34962,
      "byteStride": 12
    },
    {
      "buffer": 0,
      "byteOffset": 523312,
      "byteLength": 399360,
      "target": 34962,
      "byteStride": 12
    },
    {
      "buffer": 0,
      "byteOffset": 922672,
      "byteLength": 199680,
      "target": 34963
    }
  ],
  "buffers": [
    {
      "byteLength": 1122352,
      "uri": "data:application/octet-stream;base64,"
    }
  ],
  "accessors": [
    {
      "bufferView": 0,
      "componentType": 5126,
      "count": 984,
      "max": [
        60,
        38,
        3
      ],
      "min": [
        -60,
        -38,
        0
      ],
      "type": "VEC3"
    },
    {
      "bufferView": 1,
      "componentType": 5126,
      "count": 984,
      "max": [
        1,
        1,
        1
      ],
      "min": [
        -1,
        -1,
        -1
      ],
      "type": "VEC3"
    },
    {
      "bufferView": 2,
      "componentType": 5126,
      "count": 984,
      "max": [
        1,
        1
      ],
      "min": [
        0,
        0
      ],
      "type": "VEC2"
    },
    {
      "bufferView": 3,
      "componentType": 5125,
      "count": 3924,
      "max": [
        983
      ],
      "min": [
        0
      ],
      "type": "SCALAR"
    },
    {
      "bufferView": 4,
      "componentType": 5126,
      "count": 1312,
      "max": [
        12,
        5,
        4
      ],
      "min": [
        -12,
        -5,
        0
      ],
      "type": "VEC3"
    },
    {
      "bufferView": 5,
      "componentType": 5126,
      "count": 1312,
      "max": [
        1,
        1,
        1
      ],
      "min": [
        -1,
        -1,
        -1
      ],
      "type": "VEC3"
    },
    {
      "bufferView": 6,
      "componentType": 5126,
      "count": 1312,
      "max": [
        1,
        1
      ],
      "min": [
        0,
        0
      ],
      "type": "VEC2"
    },
    {
      "bufferView": 7,
      "componentType": 5125,
      "count": 5892,
      "max": [
        1311
      ],
      "min": [
        0
      ],
      "type": "SCALAR"
    },
    {
      "bufferView": 8,
      "componentType": 5126,
      "count": 256,
      "max": [
        21,
        21,
        2
      ],
      "min": [
        -21,
        -21,
        0
      ],
      "type": "VEC3"
    },
    {
      "bufferView": 9,
      "componentType": 5126,
      "count": 256,
      "max": [
        0.9987275004386902,
        0.9987275004386902,
        1
      ],
      "min": [
        -0.9987275004386902,
        -0.9987275004386902,
        -1
      ],
      "type": "VEC3"
    },
    {
      "bufferView": 10,
      "componentType": 5126,
      "count": 256,
      "max": [
        1,
        1
      ],
      "min": [
        0,
        0
      ],
      "type": "VEC2"
    },
    {
      "bufferView": 11,
      "componentType": 5125,
      "count": 756,
      "max": [
        255
      ],
      "min": [
        0
      ],
      "type": "SCALAR"
    },
    {
      "bufferView": 12,
      "componentType": 5126,
      "count": 33280,
      "max": [
        68.5,
        63.01156997680664,
        38.493045806884766
      ],
      "min": [
        -68.5,
        -47,
        -21.864198684692383
      ],
      "type": "VEC3"
    },
    {
      "bufferView": 13,
      "componentType": 5126,
      "count": 33280,
      "max": [
        1,
        1,
        1
      ],
      "min": [
        -1,
        -1,
        -1
      ],
      "type": "VEC3"
    },
    {
      "bufferView": 14,
      "componentType": 5125,
      "count": 49920,
      "max": [
        33279
      ],
      "min": [
        0
      ],
      "type": "SCALAR"
    }
  ],
  "meshes": [
    {
      "primitives": [
        {
          "mode": 4,
          "attributes": {
            "POSITION": 0,
            "NORMAL": 1,
            "TEXCOORD_0": 2
          },
          "extras": {
            "shape": {
              "points": [
                -60,
                38,
                -60,
                38,
                -60,
                38,
                12,
                60,
                38,
                60,
                38,
                60,
                38,
                12,
                60,
                -38,
                60,
                -38,
                60,
                -38,
                12,
                -60,
                -38,
                -60,
                -38,
                -60,
                -38,
                12
              ],
              "shapeHoles": [],
              "isClosed": true,
              "roundness": 12
            },
            "parameters": {
              "width": 120,
              "depth": 3,
              "cornerRadius": [
                12,
                12,
                12,
                12
              ],
              "cornerType": 1,
              "extrudeBevelSize": 1,
              "extrudeBevelSegments": 1,
              "extrudeDepth": 0,
              "height": 76,
              "surfaceMaxCount": 100,
              "type": "RectangleGeometry"
            },
            "ui": {
              "enabledIndieCorners": false
            },
            "type": "RectangleGeometry"
          },
          "indices": 3
        }
      ]
    },
    {
      "primitives": [
        {
          "mode": 4,
          "attributes": {
            "POSITION": 4,
            "NORMAL": 5,
            "TEXCOORD_0": 6
          },
          "extras": {
            "shape": {
              "points": [
                -12,
                5,
                -12,
                5,
                -12,
                5,
                5,
                12,
                5,
                12,
                5,
                12,
                5,
                5,
                12,
                -5,
                12,
                -5,
                12,
                -5,
                5,
                -12,
                -5,
                -12,
                -5,
                -12,
                -5,
                5
              ],
              "shapeHoles": [],
              "isClosed": true,
              "roundness": 5
            },
            "parameters": {
              "width": 24,
              "depth": 4,
              "cornerRadius": [
                8,
                8,
                8,
                8
              ],
              "cornerType": 1,
              "extrudeBevelSize": 1,
              "extrudeBevelSegments": 2,
              "extrudeDepth": 0,
              "height": 10,
              "surfaceMaxCount": 100,
              "type": "RectangleGeometry"
            },
            "ui": {
              "enabledIndieCorners": false
            },
            "type": "RectangleGeometry"
          },
          "indices": 7
        }
      ]
    },
    {
      "primitives": [
        {
          "mode": 4,
          "attributes": {
            "POSITION": 8,
            "NORMAL": 9,
            "TEXCOORD_0": 10
          },
          "extras": {
            "shape": {
              "points": [
                -21,
                0,
                -21,
                -11.5979797458,
                -21,
                11.5979797458,
                0,
                0,
                21,
                -11.5979797458,
                21,
                11.5979797458,
                21,
                0,
                21,
                0,
                21,
                11.5979797458,
                21,
                -11.5979797458,
                0,
                0,
                -21,
                11.5979797458,
                -21,
                -11.5979797458,
                -21,
                0
              ],
              "shapeHoles": [],
              "isClosed": true,
              "roundness": 0
            },
            "parameters": {
              "width": 42,
              "depth": 2,
              "spikes": 64,
              "angle": 360,
              "innerRadius": 0,
              "extrudeBevelSize": 0,
              "extrudeBevelSegments": 1,
              "extrudeDepth": 0,
              "surfaceMaxCount": 1000,
              "height": 42,
              "type": "EllipseGeometry"
            },
            "type": "EllipseGeometry"
          },
          "indices": 11
        }
      ]
    },
    {
      "primitives": [
        {
          "mode": 4,
          "attributes": {
            "POSITION": 12,
            "NORMAL": 13
          },
          "extras": {
            "type": "SubdivGeometry",
            "parameters": {
              "width": 137,
              "height": 110.18425750732422,
              "depth": 60.604225158691406
            }
          },
          "indices": 14
        }
      ]
    }
  ],
  "cameras": [
    {
      "type": "orthographic",
      "orthographic": {
        "xmag": 7.2,
        "ymag": 3.9800000000000004,
        "zfar": 100000,
        "znear": 0
      }
    }
  ]
}