{
    "asset": {
        "version": "2.0",
        "generator": "THREE.GLTFExporter"
    },
    "scenes": [
        {
            "nodes": [0]
        }
    ],
    "scene": 0,
    "nodes": [
        {
            "children": [6, 7, 8],
            "matrix": [0.01, 0, 0, 0, 0, 0.01, 0, 0, 0, 0, 0.01, 0, 0, 0, 0, 1]
        },
        {
            "matrix": [
                1, 0, 0, 0, 0, 0.9848077530122079, -0.17364817766693033, 0, 0, 0.17364817766693033, 0.9848077530122079, 0, 2.2737367544323206e-13,
                4.197374670264481, -71.30212956074072, 1
            ],
            "name": "ComputerScreen",
            "mesh": 0
        },
        {
            "matrix": [
                0.833450458369553, 0, 0, 0, 0, 2.498352899668978e-15, 0.8334504583695708, 0, 0, -0.8334504583695708, 2.498352899668978e-15, 0,
                2.2737367544323206e-13, -66.01067364931009, 62.63806376269617, 1
            ],
            "name": "CompuerPad",
            "mesh": 1
        },
        {
            "matrix": [
                0.8334504583695531, 0, 0, 0, 0, 2.4983528996689773e-15, 0.8334504583695708, 0, 0, -0.8334504583695708, 2.4983528996689773e-15, 0,
                2.2737367544323206e-13, -62.8162439307753, -3.8812370508302783, 1
            ],
            "name": "ComputerKeyboard",
            "mesh": 2
        },
        {
            "matrix": [
                1, 0, 0, 0, 0, 2.220446049250351e-16, 1.0000000000000173, 0, 0, -1.0000000000000173, 2.220446049250351e-16, 0, 2.2737367544323206e-13,
                -66.85099118487621, 15.835075354977237, 1
            ],
            "name": "ComputerBottom",
            "mesh": 3
        },
        {
            "matrix": [
                1, 0, 0, 0, 0, 0.9848077530122079, -0.17364817766693033, 0, 0, 0.17364817766693033, 0.9848077530122079, 0, 2.2737367544323206e-13,
                -0.23574006242768, -76.28787585753449, 1
            ],
            "name": "ComputerTop",
            "mesh": 4
        },
        {
            "matrix": [
                1, 6.451480080492747e-17, 3.908870478346807e-33, 0, -6.451480080492747e-17, 1, 6.058873978648722e-17, 0, 0, -6.058873978648722e-17, 1, 0, 0, 0,
                0, 0.9999999999999999
            ],
            "name": "computer",
            "children": [1, 2, 3, 4, 5]
        },
        {
            "matrix": [
                0.9578351953605686, -1.3129372866682587e-8, -0.28731818342837484, 0, -0.13588282513727243, 0.8810972983205658, -0.45299382857265647, 0,
                0.25315528112463875, 0.47293503876557896, 0.8439460010844921, 0, 105.43610649060693, 160.4087560255264, 332.1771882578225, 1
            ],
            "camera": 0
        },
        {
            "matrix": [1, 0, 0, 0, 0, 1, 0, 0, 0, 0, 1, 0, 0, 1, 0, 1],
            "name": "Default Ambient Light"
        }
    ],
    "bufferViews": [
        {
            "buffer": 0,
            "byteOffset": 0,
            "byteLength": 7872,
            "target": 34962,
            "byteStride": 12
        },
        {
            "buffer": 0,
            "byteOffset": 7872,
            "byteLength": 7872,
            "target": 34962,
            "byteStride": 12
        },
        {
            "buffer": 0,
            "byteOffset": 15744,
            "byteLength": 5248,
            "target": 34962,
            "byteStride": 8
        },
        {
            "buffer": 0,
            "byteOffset": 20992,
            "byteLength": 7824,
            "target": 34963
        },
        {
            "buffer": 0,
            "byteOffset": 28816,
            "byteLength": 7872,
            "target": 34962,
            "byteStride": 12
        },
        {
            "buffer": 0,
            "byteOffset": 36688,
            "byteLength": 7872,
            "target": 34962,
            "byteStride": 12
        },
        {
            "buffer": 0,
            "byteOffset": 44560,
            "byteLength": 5248,
            "target": 34962,
            "byteStride": 8
        },
        {
            "buffer": 0,
            "byteOffset": 49808,
            "byteLength": 7824,
            "target": 34963
        },
        {
            "buffer": 0,
            "byteOffset": 57632,
            "byteLength": 15744,
            "target": 34962,
            "byteStride": 12
        },
        {
            "buffer": 0,
            "byteOffset": 73376,
            "byteLength": 15744,
            "target": 34962,
            "byteStride": 12
        },
        {
            "buffer": 0,
            "byteOffset": 89120,
            "byteLength": 10496,
            "target": 34962,
            "byteStride": 8
        },
        {
            "buffer": 0,
            "byteOffset": 99616,
            "byteLength": 23568,
            "target": 34963
        },
        {
            "buffer": 0,
            "byteOffset": 123184,
            "byteLength": 15744,
            "target": 34962,
            "byteStride": 12
        },
        {
            "buffer": 0,
            "byteOffset": 138928,
            "byteLength": 15744,
            "target": 34962,
            "byteStride": 12
        },
        {
            "buffer": 0,
            "byteOffset": 154672,
            "byteLength": 10496,
            "target": 34962,
            "byteStride": 8
        },
        {
            "buffer": 0,
            "byteOffset": 165168,
            "byteLength": 23568,
            "target": 34963
        },
        {
            "buffer": 0,
            "byteOffset": 188736,
            "byteLength": 15744,
            "target": 34962,
            "byteStride": 12
        },
        {
            "buffer": 0,
            "byteOffset": 204480,
            "byteLength": 15744,
            "target": 34962,
            "byteStride": 12
        },
        {
            "buffer": 0,
            "byteOffset": 220224,
            "byteLength": 10496,
            "target": 34962,
            "byteStride": 8
        },
        {
            "buffer": 0,
            "byteOffset": 230720,
            "byteLength": 23568,
            "target": 34963
        }
    ],
    "buffers": [
        {
            "byteLength": 254288,
            "uri": "data:application/octet-stream;base64,"
        }
    ],
    "accessors": [
        {
            "bufferView": 0,
            "componentType": 5126,
            "count": 656,
            "max": [110, 65, 1],
            "min": [-110, -65, 0],
            "type": "VEC3"
        },
        {
            "bufferView": 1,
            "componentType": 5126,
            "count": 656,
            "max": [1, 1, 1],
            "min": [-1, -1, -1],
            "type": "VEC3"
        },
        {
            "bufferView": 2,
            "componentType": 5126,
            "count": 656,
            "max": [1, 1],
            "min": [0, 0],
            "type": "VEC2"
        },
        {
            "bufferView": 3,
            "componentType": 5125,
            "count": 1956,
            "max": [655],
            "min": [0],
            "type": "SCALAR"
        },
        {
            "bufferView": 4,
            "componentType": 5126,
            "count": 656,
            "max": [60, 24, 6],
            "min": [-60, -24, 0],
            "type": "VEC3"
        },
        {
            "bufferView": 5,
            "componentType": 5126,
            "count": 656,
            "max": [1, 1, 1],
            "min": [-1, -1, -1],
            "type": "VEC3"
        },
        {
            "bufferView": 6,
            "componentType": 5126,
            "count": 656,
            "max": [1, 1],
            "min": [0, 0],
            "type": "VEC2"
        },
        {
            "bufferView": 7,
            "componentType": 5125,
            "count": 1956,
            "max": [655],
            "min": [0],
            "type": "SCALAR"
        },
        {
            "bufferView": 8,
            "componentType": 5126,
            "count": 1312,
            "max": [118, 49.5, 6],
            "min": [-118, -49.5, 0],
            "type": "VEC3"
        },
        {
            "bufferView": 9,
            "componentType": 5126,
            "count": 1312,
            "max": [1, 1, 1],
            "min": [-1, -1, -1],
            "type": "VEC3"
        },
        {
            "bufferView": 10,
            "componentType": 5126,
            "count": 1312,
            "max": [1, 1],
            "min": [0, 0],
            "type": "VEC2"
        },
        {
            "bufferView": 11,
            "componentType": 5125,
            "count": 5892,
            "max": [1311],
            "min": [0],
            "type": "SCALAR"
        },
        {
            "bufferView": 12,
            "componentType": 5126,
            "count": 1312,
            "max": [115.14453125, 73.15625, 6],
            "min": [-115.14453125, -73.15625, 0],
            "type": "VEC3"
        },
        {
            "bufferView": 13,
            "componentType": 5126,
            "count": 1312,
            "max": [1, 1, 1],
            "min": [-1, -1, -1],
            "type": "VEC3"
        },
        {
            "bufferView": 14,
            "componentType": 5126,
            "count": 1312,
            "max": [1, 1],
            "min": [0, 0],
            "type": "VEC2"
        },
        {
            "bufferView": 15,
            "componentType": 5125,
            "count": 5892,
            "max": [1311],
            "min": [0],
            "type": "SCALAR"
        },
        {
            "bufferView": 16,
            "componentType": 5126,
            "count": 1312,
            "max": [115.14453125, 73.15625, 6],
            "min": [-115.14453125, -73.15625, 0],
            "type": "VEC3"
        },
        {
            "bufferView": 17,
            "componentType": 5126,
            "count": 1312,
            "max": [1, 1, 1],
            "min": [-1, -1, -1],
            "type": "VEC3"
        },
        {
            "bufferView": 18,
            "componentType": 5126,
            "count": 1312,
            "max": [1, 1],
            "min": [0, 0],
            "type": "VEC2"
        },
        {
            "bufferView": 19,
            "componentType": 5125,
            "count": 5892,
            "max": [1311],
            "min": [0],
            "type": "SCALAR"
        }
    ],
    "meshes": [
        {
            "primitives": [
                {
                    "mode": 4,
                    "attributes": {
                        "POSITION": 0,
                        "NORMAL": 1,
                        "TEXCOORD_0": 2
                    },
                    "extras": {
                        "shape": {
                            "points": [
                                -110, 65, -110, 65, -110, 65, 8, 110, 65, 110, 65, 110, 65, 8, 110, -65, 110, -65, 110, -65, 8, -110, -65, -110, -65, -110, -65,
                                8
                            ],
                            "shapeHoles": [],
                            "isClosed": true,
                            "roundness": 8
                        },
                        "parameters": {
                            "width": 220,
                            "depth": 1,
                            "cornerRadius": [8, 8, 8, 8],
                            "cornerType": 1,
                            "extrudeBevelSize": 0,
                            "extrudeBevelSegments": 1,
                            "extrudeDepth": 0,
                            "height": 130,
                            "surfaceMaxCount": 100,
                            "type": "RectangleGeometry"
                        },
                        "ui": {
                            "enabledIndieCorners": false
                        },
                        "type": "RectangleGeometry"
                    },
                    "indices": 3
                }
            ]
        },
        {
            "primitives": [
                {
                    "mode": 4,
                    "attributes": {
                        "POSITION": 4,
                        "NORMAL": 5,
                        "TEXCOORD_0": 6
                    },
                    "extras": {
                        "shape": {
                            "points": [
                                -60, 24, -60, 24, -60, 24, 12, 60, 24, 60, 24, 60, 24, 12, 60, -24, 60, -24, 60, -24, 12, -60, -24, -60, -24, -60, -24, 12
                            ],
                            "shapeHoles": [],
                            "isClosed": true,
                            "roundness": 12
                        },
                        "parameters": {
                            "width": 120,
                            "depth": 6,
                            "cornerRadius": [12, 12, 12, 12],
                            "cornerType": 1,
                            "extrudeBevelSize": 0,
                            "extrudeBevelSegments": 1,
                            "extrudeDepth": 0,
                            "height": 48,
                            "surfaceMaxCount": 100,
                            "type": "RectangleGeometry"
                        },
                        "ui": {
                            "enabledIndieCorners": false
                        },
                        "type": "RectangleGeometry"
                    },
                    "indices": 7
                }
            ]
        },
        {
            "primitives": [
                {
                    "mode": 4,
                    "attributes": {
                        "POSITION": 8,
                        "NORMAL": 9,
                        "TEXCOORD_0": 10
                    },
                    "extras": {
                        "shape": {
                            "points": [
                                -118, 49.5, -118, 49.5, -118, 49.5, 12, 118, 49.5, 118, 49.5, 118, 49.5, 12, 118, -49.5, 118, -49.5, 118, -49.5, 12, -118,
                                -49.5, -118, -49.5, -118, -49.5, 12
                            ],
                            "shapeHoles": [],
                            "isClosed": true,
                            "roundness": 12
                        },
                        "parameters": {
                            "width": 236,
                            "depth": 6,
                            "cornerRadius": [12, 12, 12, 12],
                            "cornerType": 1,
                            "extrudeBevelSize": 1,
                            "extrudeBevelSegments": 2,
                            "extrudeDepth": 0,
                            "height": 99,
                            "surfaceMaxCount": 100,
                            "type": "RectangleGeometry"
                        },
                        "ui": {
                            "enabledIndieCorners": false
                        },
                        "type": "RectangleGeometry"
                    },
                    "indices": 11
                }
            ]
        },
        {
            "primitives": [
                {
                    "mode": 4,
                    "attributes": {
                        "POSITION": 12,
                        "NORMAL": 13,
                        "TEXCOORD_0": 14
                    },
                    "extras": {
                        "shape": {
                            "points": [
                                -115.1445312500003, 73.15625000000288, -115.1445312500003, 73.15625000000288, -115.1445312500003, 73.15625000000288, 12,
                                115.1445312500003, 73.15625000000288, 115.1445312500003, 73.15625000000288, 115.1445312500003, 73.15625000000288, 12,
                                115.1445312500003, -73.15625000000288, 115.1445312500003, -73.15625000000288, 115.1445312500003, -73.15625000000288, 12,
                                -115.1445312500003, -73.15625000000288, -115.1445312500003, -73.15625000000288, -115.1445312500003, -73.15625000000288, 12
                            ],
                            "shapeHoles": [],
                            "isClosed": true,
                            "roundness": 12
                        },
                        "parameters": {
                            "width": 230.2890625000006,
                            "depth": 6,
                            "cornerRadius": [12, 12, 12, 12],
                            "cornerType": 1,
                            "extrudeBevelSize": 1,
                            "extrudeBevelSegments": 2,
                            "extrudeDepth": 0,
                            "height": 146.31250000000577,
                            "surfaceMaxCount": 100,
                            "type": "RectangleGeometry"
                        },
                        "ui": {
                            "enabledIndieCorners": false
                        },
                        "type": "RectangleGeometry"
                    },
                    "indices": 15
                }
            ]
        },
        {
            "primitives": [
                {
                    "mode": 4,
                    "attributes": {
                        "POSITION": 16,
                        "NORMAL": 17,
                        "TEXCOORD_0": 18
                    },
                    "extras": {
                        "shape": {
                            "points": [
                                -115.1445312500003, 73.15625000000288, -115.1445312500003, 73.15625000000288, -115.1445312500003, 73.15625000000288, 12,
                                115.1445312500003, 73.15625000000288, 115.1445312500003, 73.15625000000288, 115.1445312500003, 73.15625000000288, 12,
                                115.1445312500003, -73.15625000000288, 115.1445312500003, -73.15625000000288, 115.1445312500003, -73.15625000000288, 12,
                                -115.1445312500003, -73.15625000000288, -115.1445312500003, -73.15625000000288, -115.1445312500003, -73.15625000000288, 12
                            ],
                            "shapeHoles": [],
                            "isClosed": true,
                            "roundness": 12
                        },
                        "parameters": {
                            "width": 230.2890625000006,
                            "depth": 6,
                            "cornerRadius": [12, 12, 12, 12],
                            "cornerType": 1,
                            "extrudeBevelSize": 1,
                            "extrudeBevelSegments": 2,
                            "extrudeDepth": 0,
                            "height": 146.31250000000577,
                            "surfaceMaxCount": 100,
                            "type": "RectangleGeometry"
                        },
                        "ui": {
                            "enabledIndieCorners": false
                        },
                        "type": "RectangleGeometry"
                    },
                    "indices": 19
                }
            ]
        }
    ],
    "cameras": [
        {
            "type": "perspective",
            "perspective": {
                "aspectRatio": 1.9485791610284169,
                "yfov": 0.7853981633974483,
                "zfar": 100000,
                "znear": 70
            }
        }
    ]
}
